<?xml version="1.0" encoding="UTF-8"?>
<svg id="Laag_2" data-name="Laag 2" xmlns="http://www.w3.org/2000/svg" viewBox="0 0 201.32 280.94">
  <defs>
    <style>
      .cls-1 {
        fill: #1d1d1b;
        stroke-width: 0px;
      }
    </style>
  </defs>
  <g id="Laag_1-2" data-name="Laag 1">
    <path class="cls-1" d="M173.5,280.86l-15,.02c0-.28-.18-28.31-9.75-64.18-8.6-32.26-26.81-77.74-64.73-111.79l-28.22,28.22L13.65,13.88l125.48,35.92-33.86,33.86c33.99,31.01,59.11,74.57,72.72,126.2,4.18,15.87,6.7,30.25,8.22,41.86-5.15-40.46-22.26-114.55-79.17-168.91l36.37-36.37L0,5.39l48.18,136.27,30.56-30.56c34.75,32.93,51.78,75.72,59.98,106.37,9.49,35.45,9.69,63.18,9.69,63.46l20-.03h20s0-.03,0-.05h-14.91Z"/>
    <path class="cls-1" d="M119.94,77.42l36.37-36.37L12.9,0l48.18,136.27,30.56-30.56c34.75,32.93,51.78,75.72,59.98,106.37,9.49,35.45,9.69,63.18,9.69,63.46l20-.03h20c0-5.03-.96-121.26-81.38-198.09ZM180.4,272.46l-15,.02c0-.28-.18-28.31-9.75-64.18-8.6-32.26-26.81-77.74-64.73-111.79l-28.22,28.22L20.55,5.49l125.48,35.92-33.86,33.86c33.99,31.01,59.11,74.57,72.72,126.2,10.4,39.47,10.52,69.73,10.52,70.99h-15Z"/>
  </g>
</svg>