<?xml version="1.0" encoding="UTF-8"?>
<svg id="Laag_2" data-name="Laag 2" xmlns="http://www.w3.org/2000/svg" viewBox="0 0 284.07 28.27">
  <defs>
    <style>
      .cls-1 {
        fill: #063;
        stroke: #063;
      }

      .cls-1, .cls-2 {
        stroke-miterlimit: 10;
      }

      .cls-2 {
        fill: #1d1d1b;
        stroke: #1d1d1b;
      }
    </style>
  </defs>
  <g id="Laag_4" data-name="Laag 4">
    <g>
      <path class="cls-2" d="M.5.98h9.08c1.12,0,2.18.14,3.19.43s1.95.7,2.82,1.22,1.66,1.16,2.37,1.89,1.31,1.55,1.81,2.45.88,1.87,1.15,2.9.4,2.11.4,3.23-.13,2.23-.4,3.27-.65,2.02-1.15,2.93-1.1,1.74-1.81,2.49-1.5,1.38-2.37,1.91-1.81.94-2.82,1.23-2.07.43-3.19.43H.5s0-2.77,0-2.77h2.32s0-18.84,0-18.84H.5s0-2.78,0-2.78ZM5.97,3.77v18.84s3.8,0,3.8,0c1.13,0,2.19-.25,3.18-.74s1.86-1.17,2.6-2.02,1.32-1.86,1.75-3.01.64-2.39.64-3.73-.21-2.53-.64-3.67-1.01-2.13-1.75-2.97-1.61-1.5-2.6-1.99-2.05-.72-3.18-.72h-3.8Z"/>
      <path class="cls-2" d="M24.75.98h17.48s0,6.9,0,6.9h-3.3s0-4.12,0-4.12h-8.71s0,7.8,0,7.8h7.32s0,2.77,0,2.77h-7.32s0,8.27,0,8.27h8.71s0-4.12,0-4.12h3.3s0,6.89,0,6.89h-17.48s0-2.77,0-2.77h2.32s0-18.84,0-18.84h-2.32s0-2.78,0-2.78Z"/>
      <path class="cls-2" d="M52.65.98h17.48s0,6.9,0,6.9h-3.3s0-4.12,0-4.12h-8.71s0,7.84,0,7.84h8.38s0,2.7,0,2.7h-8.38s0,8.3,0,8.3h2.45s0,2.77,0,2.77h-7.92s0-2.77,0-2.77h2.32s0-18.84,0-18.84h-2.32s0-2.78,0-2.78Z"/>
      <path class="cls-2" d="M85.87,22.61h2.03s-1.93-5.54-1.93-5.54h-9.38s-1.88,5.54-1.88,5.54h2.51s0,2.77,0,2.77h-7.92s0-2.77,0-2.77h2.12S79.01.98,79.01.98h4.75s7.58,21.63,7.58,21.63h2.45s0,2.77,0,2.77h-7.92s0-2.77,0-2.77ZM77.5,14.4h7.53s-3.8-10.91-3.8-10.91l-3.73,10.91Z"/>
      <path class="cls-2" d="M96.25,22.61h2.32s0-18.84,0-18.84h-2.32s0-2.82,0-2.82l10.97.03c.99,0,1.91.19,2.78.56s1.63.87,2.27,1.51,1.15,1.39,1.52,2.26.56,1.8.56,2.8-.29,1.99-.87,2.85-1.41,1.54-2.48,2.06c.53.28,1,.6,1.43.97s.79.78,1.09,1.21.53.91.7,1.4.25,1,.25,1.51c0,1.02-.19,1.97-.56,2.85s-.88,1.65-1.52,2.3-1.4,1.17-2.26,1.54-1.79.56-2.78.56h-11.12s0-2.77,0-2.77ZM101.72,3.77v7.97s5.54,0,5.54,0c.51,0,.99-.1,1.44-.31s.83-.48,1.16-.82.59-.74.78-1.19.29-.92.29-1.4c0-.53-.1-1.04-.29-1.55s-.46-.96-.79-1.36-.72-.72-1.17-.97-.92-.37-1.42-.37h-5.54ZM101.72,14.53v8.08s5.68,0,5.68,0c.51,0,.99-.13,1.43-.39s.83-.59,1.16-1.01.59-.88.78-1.41.28-1.06.28-1.61c0-.47-.1-.93-.29-1.37s-.45-.83-.78-1.17-.71-.62-1.16-.82-.92-.31-1.42-.31h-5.68Z"/>
      <path class="cls-2" d="M118,.98h10.15c1.08,0,2.08.14,3,.43s1.71.7,2.38,1.26,1.19,1.24,1.57,2.07.56,1.78.56,2.85c0,.61-.11,1.21-.33,1.81s-.53,1.15-.92,1.66-.86.96-1.39,1.36-1.12.7-1.75.92c.27.12.54.29.81.51s.53.49.77.8.46.68.66,1.08.36.83.47,1.3l1.35,5.31h2.11s.03,3.06.03,3.06h-4.75s-1.82-7.42-1.82-7.42c-.33-1.33-.84-2.31-1.52-2.94s-1.61-.94-2.79-.94h-3.14v8.53h2.45s0,2.77,0,2.77h-7.92s0-2.77,0-2.77h2.32s0-18.84,0-18.84h-2.32s0-2.78,0-2.78ZM123.47,3.77v7.68s4.68,0,4.68,0c.61,0,1.17-.08,1.68-.24s.95-.4,1.32-.72.66-.72.87-1.2.31-1.03.31-1.67c0-1.21-.36-2.16-1.09-2.83s-1.89-1.01-3.48-1.01h-4.3Z"/>
      <path class="cls-2" d="M141.46.98h7.79s0,2.78,0,2.78h-2.32s0,18.84,0,18.84h2.32s0,2.77,0,2.77h-7.79s0-2.77,0-2.77h2.32s0-18.84,0-18.84h-2.32s0-2.78,0-2.78Z"/>
      <path class="cls-2" d="M153.89.98h7.92s0,2.78,0,2.78h-2.48s0,18.84,0,18.84h2.45s0,2.77,0,2.77h-7.92s0-2.77,0-2.77h2.32s0-18.84,0-18.84h-2.29s0-2.78,0-2.78ZM170.01,3.77V.98s5.6,0,5.6,0v2.78s-1.91,0-1.91,0l-10.68,9,9.99,9.85h2.61s0,2.77,0,2.77h-6.57s0-2.77,0-2.77l-9.69-9.69,10.65-9.16Z"/>
      <path class="cls-2" d="M179.07.98h17.48s0,6.9,0,6.9h-3.3s0-4.12,0-4.12h-8.71s0,7.8,0,7.8h7.32s0,2.77,0,2.77h-7.32s0,8.27,0,8.27h8.71s0-4.12,0-4.12h3.3s0,6.89,0,6.89h-17.48s0-2.77,0-2.77h2.32s0-18.84,0-18.84h-2.32s0-2.78,0-2.78Z"/>
      <path class="cls-2" d="M199.76.98h10.15c1.08,0,2.08.14,3,.43s1.71.7,2.38,1.26,1.19,1.24,1.57,2.07.56,1.78.56,2.85c0,.61-.11,1.21-.33,1.81s-.53,1.15-.92,1.66-.86.96-1.39,1.36-1.12.7-1.75.92c.27.12.54.29.81.51s.53.49.77.8.46.68.66,1.08.36.83.47,1.3l1.35,5.31h2.11s.03,3.06.03,3.06h-4.75s-1.82-7.42-1.82-7.42c-.33-1.33-.84-2.31-1.52-2.94s-1.61-.94-2.79-.94h-3.14v8.53h2.45s0,2.77,0,2.77h-7.92s0-2.77,0-2.77h2.32s0-18.84,0-18.84h-2.32s0-2.78,0-2.78ZM205.23,3.77v7.68s4.68,0,4.68,0c.61,0,1.17-.08,1.68-.24s.95-.4,1.32-.72.66-.72.87-1.2.31-1.03.31-1.67c0-1.21-.36-2.16-1.09-2.83s-1.89-1.01-3.48-1.01h-4.3Z"/>
      <path class="cls-2" d="M223.22.98h7.79s0,2.78,0,2.78h-2.32s0,18.84,0,18.84h2.32s0,2.77,0,2.77h-7.79s0-2.77,0-2.77h2.32s0-18.84,0-18.84h-2.32s0-2.78,0-2.78Z"/>
      <path class="cls-2" d="M250.71.98h7.92s0,2.78,0,2.78h-2.08s0,21.61,0,21.61h-4.12s-11.34-20.23-11.34-20.23v17.46s2.51,0,2.51,0v2.77s-7.92,0-7.92,0v-2.77s2.25,0,2.25,0V3.77s-2.32,0-2.32,0V.95s6.57,0,6.57,0l11.14,20.03.13-.77V3.77s-2.74,0-2.74,0V.98Z"/>
      <path class="cls-1" d="M280.57,27.77v-7.18c-.23.57-.92,1.59-1.53,2.21s-1.29,1.15-2.04,1.55-1.55.71-2.41.92-1.72.31-2.6.31c-1.59,0-3.05-.27-4.39-.8s-2.56-1.38-3.64-2.53-1.92-2.53-2.49-4.12-.86-3.25-.86-4.97.29-3.38.86-4.92,1.38-2.89,2.41-4.04,2.27-2.05,3.7-2.7,2.98-.98,4.66-.98c1.54,0,2.87.22,3.98.66s2.06.97,2.85,1.6,1.42,1.23,1.89,1.79h1.56s0,2.86,0,2.86h-3.46c-.72-1.22-1.67-2.19-2.86-2.9s-2.51-1.05-3.98-1.03c-1.23,0-2.37.26-3.4.79s-1.91,1.23-2.65,2.12-1.31,1.91-1.71,3.07-.61,2.38-.61,3.67c0,1.43.23,2.75.68,3.97s1.02,2.22,1.72,2.98,1.56,1.39,2.58,1.89,2.16.75,3.4.75c2.06,0,3.75-.5,5.07-1.5s1.69-1.61,1.94-2.41h-6s0-2.76,0-2.76h10.31s0,11.7,0,11.7h-2.99Z"/>
    </g>
  </g>
</svg>